<svg width="25" height="24" viewBox="0 0 25 24" fill="none" xmlns="http://www.w3.org/2000/svg">
<path d="M1.5 8.5C1.5 6.17029 1.5 5.00544 1.8806 4.08658C2.38807 2.86144 3.36144 1.88807 4.58658 1.3806C5.50544 1 6.67029 1 9 1C9.46594 1 9.69891 1 9.88268 1.07612C10.1277 1.17761 10.3224 1.37229 10.4239 1.61732C10.5 1.80109 10.5 2.03406 10.5 2.5V9.2C10.5 9.48003 10.5 9.62004 10.4455 9.727C10.3976 9.82108 10.3211 9.89757 10.227 9.9455C10.12 10 9.98003 10 9.7 10H3C2.53406 10 2.30109 10 2.11732 9.92388C1.87229 9.82239 1.67761 9.62771 1.57612 9.38268C1.5 9.19891 1.5 8.96594 1.5 8.5Z" stroke="#FFF9F9" stroke-width="2"/>
<path d="M1.5 15.5C1.5 15.0341 1.5 14.8011 1.57612 14.6173C1.67761 14.3723 1.87229 14.1776 2.11732 14.0761C2.30109 14 2.53406 14 3 14H9.7C9.98003 14 10.12 14 10.227 14.0545C10.3211 14.1024 10.3976 14.1789 10.4455 14.273C10.5 14.38 10.5 14.52 10.5 14.8V21.5C10.5 21.9659 10.5 22.1989 10.4239 22.3827C10.3224 22.6277 10.1277 22.8224 9.88268 22.9239C9.69891 23 9.46594 23 9 23C6.67029 23 5.50544 23 4.58658 22.6194C3.36144 22.1119 2.38807 21.1386 1.8806 19.9134C1.5 18.9946 1.5 17.8297 1.5 15.5Z" stroke="#FFF9F9" stroke-width="2"/>
<path d="M14.5 2.5C14.5 2.03406 14.5 1.80109 14.5761 1.61732C14.6776 1.37229 14.8723 1.17761 15.1173 1.07612C15.3011 1 15.5341 1 16 1C18.3297 1 19.4946 1 20.4134 1.3806C21.6386 1.88807 22.6119 2.86144 23.1194 4.08658C23.5 5.00544 23.5 6.17029 23.5 8.5C23.5 8.96594 23.5 9.19891 23.4239 9.38268C23.3224 9.62771 23.1277 9.82239 22.8827 9.92388C22.6989 10 22.4659 10 22 10H15.3C15.02 10 14.88 10 14.773 9.9455C14.6789 9.89757 14.6024 9.82108 14.5545 9.727C14.5 9.62004 14.5 9.48003 14.5 9.2V2.5Z" stroke="#FFF9F9" stroke-width="2"/>
<path d="M14.5 14.8C14.5 14.52 14.5 14.38 14.5545 14.273C14.6024 14.1789 14.6789 14.1024 14.773 14.0545C14.88 14 15.02 14 15.3 14H22C22.4659 14 22.6989 14 22.8827 14.0761C23.1277 14.1776 23.3224 14.3723 23.4239 14.6173C23.5 14.8011 23.5 15.0341 23.5 15.5C23.5 17.8297 23.5 18.9946 23.1194 19.9134C22.6119 21.1386 21.6386 22.1119 20.4134 22.6194C19.4946 23 18.3297 23 16 23C15.5341 23 15.3011 23 15.1173 22.9239C14.8723 22.8224 14.6776 22.6277 14.5761 22.3827C14.5 22.1989 14.5 21.9659 14.5 21.5V14.8Z" stroke="#FFF9F9" stroke-width="2"/>
</svg>
