<svg width="40" height="40" viewBox="0 0 40 40" fill="none" xmlns="http://www.w3.org/2000/svg">
<rect x="0.5" y="0.5" width="39" height="39" rx="19.5" fill="#C02739" fill-opacity="0.05"/>
<path d="M23.1797 13.4857L30.6135 19.9585C30.8278 20.145 30.9349 20.2383 30.9741 20.3493C31.0086 20.4467 31.0086 20.5533 30.9741 20.6507C30.9349 20.7617 30.8278 20.8549 30.6135 21.0415L23.1797 27.5142M17.0207 17.8564V14.0272C17.0207 13.5338 17.0207 13.2871 17.1194 13.1641C17.2051 13.0573 17.3347 12.9967 17.4704 13.0001C17.6265 13.0041 17.8109 13.1646 18.1797 13.4857L25.6136 19.9585C25.8278 20.145 25.9349 20.2383 25.9742 20.3493C26.0086 20.4467 26.0086 20.5533 25.9742 20.6507C25.9349 20.7617 25.8278 20.855 25.6136 21.0415L18.1797 27.5143C17.8109 27.8354 17.6265 27.9959 17.4704 27.9999C17.3347 28.0033 17.2051 27.9427 17.1194 27.8359C17.0207 27.7129 17.0207 27.4662 17.0207 26.9728V23.2373C15.7556 23.3245 14.5167 23.6554 13.3706 24.2139C12.0707 24.8474 10.9209 25.7588 9.99999 26.8857V26.3401C10.0011 24.2228 10.7695 22.18 12.1586 20.6015C13.4328 19.1536 15.1474 18.1893 17.0207 17.8564Z" stroke="#C02739" stroke-width="2" stroke-linecap="round" stroke-linejoin="round"/>
<rect x="0.5" y="0.5" width="39" height="39" rx="19.5" stroke="#C02739"/>
</svg>
