<svg width="40" height="40" viewBox="0 0 40 40" fill="none" xmlns="http://www.w3.org/2000/svg">
<rect x="0.5" y="0.5" width="39" height="39" rx="19.5" fill="#C02739" fill-opacity="0.05"/>
<path fill-rule="evenodd" clip-rule="evenodd" d="M19.9938 13.9162C18.1944 11.8191 15.1938 11.255 12.9392 13.1753C10.6847 15.0955 10.3673 18.3061 12.1378 20.5771C13.6098 22.4654 18.0648 26.4478 19.5249 27.7368C19.6882 27.881 19.7699 27.9531 19.8652 27.9815C19.9483 28.0062 20.0393 28.0062 20.1225 27.9815C20.2178 27.9531 20.2994 27.881 20.4628 27.7368C21.9229 26.4478 26.3778 22.4654 27.8499 20.5771C29.6204 18.3061 29.3417 15.0753 27.0484 13.1753C24.7551 11.2752 21.7933 11.8191 19.9938 13.9162Z" stroke="#C02739" stroke-width="2" stroke-linecap="round" stroke-linejoin="round"/>
<rect x="0.5" y="0.5" width="39" height="39" rx="19.5" stroke="#C02739"/>
</svg>
