<svg width="23" height="24" viewBox="0 0 23 24" fill="none" xmlns="http://www.w3.org/2000/svg">
<path d="M7.5625 23V14.1575C7.5625 13.4598 8.15013 12.8943 8.875 12.8943H14.125C14.8499 12.8943 15.4375 13.4598 15.4375 14.1575V23M1 20.4736V10.9249C1 9.40937 1.70679 7.97388 2.9255 7.01419L9.83775 1.57108C10.8047 0.80964 12.1953 0.809639 13.1622 1.57108L20.0745 7.01419C21.2932 7.97388 22 9.40937 22 10.9249V20.4736C22 21.8689 20.8247 23 19.375 23H16.75H6.25H3.625C2.17525 23 1 21.8689 1 20.4736Z" stroke="#FFF9F9" stroke-width="2" stroke-linecap="round"/>
</svg>
