<svg width="25" height="24" viewBox="0 0 25 24" fill="none" xmlns="http://www.w3.org/2000/svg">
<path d="M22.7929 23.7071C23.1834 24.0976 23.8166 24.0976 24.2071 23.7071C24.5976 23.3166 24.5976 22.6834 24.2071 22.2929L22.7929 23.7071ZM18.6176 10.0588C18.6176 14.5096 15.0096 18.1176 10.5588 18.1176V20.1176C16.1142 20.1176 20.6176 15.6142 20.6176 10.0588H18.6176ZM10.5588 18.1176C6.10806 18.1176 2.5 14.5096 2.5 10.0588H0.5C0.5 15.6142 5.00349 20.1176 10.5588 20.1176V18.1176ZM2.5 10.0588C2.5 5.60806 6.10806 2 10.5588 2V0C5.00349 0 0.5 4.50349 0.5 10.0588H2.5ZM10.5588 2C15.0096 2 18.6176 5.60806 18.6176 10.0588H20.6176C20.6176 4.50349 16.1142 0 10.5588 0V2ZM16.3223 17.2365L22.7929 23.7071L24.2071 22.2929L17.7365 15.8223L16.3223 17.2365Z" fill="#FFF9F9"/>
</svg>
