<svg width="22" height="22" viewBox="0 0 22 22" fill="none" xmlns="http://www.w3.org/2000/svg">
<path d="M1 7V4.2C1 3.0799 1 2.51984 1.21799 2.09202C1.40973 1.71569 1.71569 1.40973 2.09202 1.21799C2.51984 1 3.0799 1 4.2 1H7M15 1L17.8 1C18.9201 1 19.4802 1 19.908 1.21799C20.2843 1.40973 20.5903 1.7157 20.782 2.09202C21 2.51984 21 3.0799 21 4.2V7M21 15V17.8C21 18.9201 21 19.4802 20.782 19.908C20.5903 20.2843 20.2843 20.5903 19.908 20.782C19.4802 21 18.9201 21 17.8 21H15M7 21H4.2C3.0799 21 2.51984 21 2.09202 20.782C1.71569 20.5903 1.40973 20.2843 1.21799 19.908C1 19.4802 1 18.9201 1 17.8L1 15" stroke="#FFF9F9" stroke-width="2" stroke-linecap="round"/>
</svg>
