<svg width="36" height="36" viewBox="0 0 36 36" fill="none" xmlns="http://www.w3.org/2000/svg">
<path d="M23.9999 13.5V10.5C23.9999 7.18629 21.3136 4.5 17.9999 4.5C16.4783 4.5 15.0889 5.06645 14.0312 6M12.3 31.5H23.7C25.3802 31.5 26.2202 31.5 26.862 31.173C27.4265 30.8854 27.8854 30.4265 28.173 29.862C28.5 29.2202 28.5 28.3802 28.5 26.7V18.3C28.5 16.6198 28.5 15.7798 28.173 15.138C27.8854 14.5735 27.4265 14.1146 26.862 13.827C26.2202 13.5 25.3802 13.5 23.7 13.5H12.3C10.6198 13.5 9.77976 13.5 9.13803 13.827C8.57354 14.1146 8.1146 14.5735 7.82698 15.138C7.5 15.7798 7.5 16.6198 7.5 18.3V26.7C7.5 28.3802 7.5 29.2202 7.82698 29.862C8.1146 30.4265 8.57354 30.8854 9.13803 31.173C9.77976 31.5 10.6198 31.5 12.3 31.5Z" stroke="#FFF9F9" stroke-width="3" stroke-linecap="round"/>
</svg>
