<svg width="36" height="36" viewBox="0 0 36 36" fill="none" xmlns="http://www.w3.org/2000/svg">
<path d="M33 13.5L27.3 13.5C25.6198 13.5 24.7798 13.5 24.138 13.173C23.5735 12.8854 23.1146 12.4265 22.827 11.862C22.5 11.2202 22.5 10.3802 22.5 8.7L22.5 3" stroke="#FFF9F9" stroke-width="3" stroke-linecap="round"/>
<path d="M3 22.5L8.7 22.5C10.3802 22.5 11.2202 22.5 11.862 22.827C12.4265 23.1146 12.8854 23.5735 13.173 24.138C13.5 24.7798 13.5 25.6198 13.5 27.3L13.5 33" stroke="#FFF9F9" stroke-width="3" stroke-linecap="round"/>
<path d="M13.5 3L13.5 8.7C13.5 10.3802 13.5 11.2202 13.173 11.862C12.8854 12.4265 12.4265 12.8854 11.862 13.173C11.2202 13.5 10.3802 13.5 8.7 13.5L3 13.5" stroke="#FFF9F9" stroke-width="3" stroke-linecap="round"/>
<path d="M22.5 33L22.5 27.3C22.5 25.6198 22.5 24.7798 22.827 24.138C23.1146 23.5735 23.5735 23.1146 24.138 22.827C24.7798 22.5 25.6198 22.5 27.3 22.5L33 22.5" stroke="#FFF9F9" stroke-width="3" stroke-linecap="round"/>
</svg>
