<svg width="24" height="24" viewBox="0 0 24 24" fill="none" xmlns="http://www.w3.org/2000/svg">
<path d="M9.608 1.517C10.378 1.342 11.178 1.25 12 1.25C17.937 1.25 22.75 6.063 22.75 12C22.75 17.937 17.937 22.75 12 22.75C11.178 22.75 10.378 22.658 9.608 22.483C9.51194 22.4612 9.42111 22.4207 9.3407 22.3638C9.2603 22.3069 9.19188 22.2347 9.13937 22.1514C9.08686 22.068 9.05128 21.9752 9.03466 21.8781C9.01804 21.781 9.0207 21.6816 9.0425 21.5855C9.0643 21.4894 9.10481 21.3986 9.16171 21.3182C9.21861 21.2378 9.29079 21.1694 9.37413 21.1169C9.45747 21.0644 9.55034 21.0288 9.64743 21.0122C9.74452 20.9955 9.84394 20.9982 9.94 21.02C11.2944 21.3278 12.7007 21.3266 14.0545 21.0166C15.4084 20.7066 16.6751 20.0957 17.7606 19.2292C18.846 18.3628 19.7225 17.263 20.3248 16.0115C20.9271 14.76 21.2399 13.3889 21.2399 12C21.2399 10.6111 20.9271 9.24002 20.3248 7.98852C19.7225 6.73702 18.846 5.63722 17.7606 4.77075C16.6751 3.90428 15.4084 3.29337 14.0545 2.98336C12.7007 2.67335 11.2944 2.6722 9.94 2.98C9.74599 3.02403 9.54245 2.98918 9.37413 2.88313C9.20582 2.77708 9.08653 2.60851 9.0425 2.4145C8.99847 2.22049 9.03332 2.01695 9.13937 1.84863C9.24542 1.68032 9.41399 1.56103 9.608 1.517ZM7.314 3.132C7.4199 3.30029 7.45463 3.50375 7.41056 3.69765C7.3665 3.89155 7.24724 4.06001 7.079 4.166C5.9024 4.90739 4.90699 5.90314 4.166 7.08C4.05991 7.24841 3.89127 7.36778 3.69717 7.41186C3.50307 7.45593 3.29941 7.42109 3.131 7.315C2.96259 7.20891 2.84322 7.04027 2.79914 6.84617C2.75507 6.65207 2.78991 6.44841 2.896 6.28C3.75694 4.91356 4.9133 3.75754 6.28 2.897C6.36337 2.84441 6.45629 2.80877 6.55345 2.79211C6.6506 2.77546 6.75009 2.77812 6.84621 2.79995C6.94234 2.82177 7.03322 2.86234 7.11366 2.91931C7.1941 2.97629 7.26152 3.04856 7.314 3.132ZM2.98 9.94C3.02403 9.74599 2.98918 9.54245 2.88313 9.37413C2.77708 9.20582 2.60851 9.08653 2.4145 9.0425C2.22049 8.99847 2.01695 9.03332 1.84863 9.13937C1.68032 9.24542 1.56103 9.41399 1.517 9.608C1.342 10.378 1.25 11.178 1.25 12C1.25 12.822 1.342 13.622 1.517 14.393C1.56116 14.587 1.68058 14.7555 1.84898 14.8615C2.01739 14.9674 2.22099 15.0022 2.415 14.958C2.60901 14.9138 2.77752 14.7944 2.88348 14.626C2.98944 14.4576 3.02416 14.254 2.98 14.06C2.82667 13.3841 2.74952 12.6931 2.75 12C2.75 11.291 2.83 10.602 2.98 9.94ZM3.132 16.686C3.30029 16.5801 3.50375 16.5454 3.69765 16.5894C3.89155 16.6335 4.06001 16.7528 4.166 16.921C4.90708 18.0975 5.90249 19.0929 7.079 19.834C7.16239 19.8865 7.23462 19.955 7.29156 20.0354C7.3485 20.1159 7.38903 20.2067 7.41086 20.3028C7.43268 20.3989 7.43536 20.4984 7.41874 20.5955C7.40212 20.6927 7.36653 20.7856 7.314 20.869C7.26147 20.9524 7.19303 21.0246 7.11259 21.0816C7.03215 21.1385 6.94128 21.179 6.84517 21.2009C6.65107 21.2449 6.44741 21.2101 6.279 21.104C4.91305 20.2432 3.75739 19.0872 2.897 17.721C2.84441 17.6376 2.80877 17.5447 2.79211 17.4476C2.77546 17.3504 2.77812 17.2509 2.79995 17.1548C2.82177 17.0587 2.86234 16.9678 2.91931 16.8873C2.97629 16.8069 3.04856 16.7385 3.132 16.686Z" fill="#FFF9F9"/>
<path d="M15.414 10.941C16.195 11.403 16.195 12.597 15.414 13.059L10.694 15.846C9.934 16.294 9 15.71 9 14.786V9.21402C9 8.29002 9.934 7.70702 10.694 8.15502L15.414 10.942V10.941Z" fill="#FFF9F9"/>
</svg>
