<svg width="24" height="24" viewBox="0 0 24 24" fill="none" xmlns="http://www.w3.org/2000/svg">
<path d="M3.73005 19.455L3.27606 20.346L3.73005 19.455ZM1 12H2H1ZM1.54497 17.2699L0.653961 17.7239L0.653961 17.7239L1.54497 17.2699ZM22.455 17.2699L21.564 16.8159V16.8159L22.455 17.2699ZM20.27 19.455L19.816 18.564L20.27 19.455ZM20.2699 4.54497L19.8159 5.43597V5.43597L20.2699 4.54497ZM22.455 6.73005L21.564 7.18404V7.18404L22.455 6.73005ZM3.73 4.54497L4.18399 5.43597L3.73 4.54497ZM1.54492 6.73005L2.43593 7.18404L1.54492 6.73005ZM4.99995 10C4.44767 10 3.99995 10.4477 3.99995 11C3.99995 11.5523 4.44767 12 4.99995 12L4.99995 10ZM7.99995 12C8.55224 12 8.99995 11.5523 8.99995 11C8.99995 10.4477 8.55224 10 7.99995 10V12ZM16 14C15.4477 14 15 14.4477 15 15C15 15.5523 15.4477 16 16 16V14ZM19 16C19.5522 16 20 15.5523 20 15C20 14.4477 19.5522 14 19 14V16ZM12 10C11.4477 10 11 10.4477 11 11C11 11.5523 11.4477 12 12 12V10ZM19 12C19.5522 12 20 11.5523 20 11C20 10.4477 19.5522 10 19 10V12ZM4.99995 14C4.44767 14 3.99995 14.4477 3.99995 15C3.99995 15.5523 4.44767 16 4.99995 16L4.99995 14ZM12 16C12.5522 16 13 15.5523 13 15C13 14.4477 12.5522 14 12 14V16ZM8.99995 5H15V3H8.99995V5ZM15 19H9V21H15V19ZM9 19C7.58337 19 6.58104 18.9992 5.79744 18.9352C5.02552 18.8721 4.55435 18.7527 4.18404 18.564L3.27606 20.346C3.9753 20.7023 4.73898 20.8554 5.63458 20.9285C6.51851 21.0008 7.61637 21 9 21V19ZM0 12C0 13.3836 -0.000777721 14.4815 0.071442 15.3654C0.144616 16.261 0.297677 17.0247 0.653961 17.7239L2.43597 16.8159C2.24729 16.4456 2.12787 15.9745 2.0648 15.2025C2.00078 14.4189 2 13.4166 2 12H0ZM4.18404 18.564C3.43139 18.1805 2.81947 17.5686 2.43597 16.8159L0.653961 17.7239C1.2292 18.8529 2.14708 19.7708 3.27606 20.346L4.18404 18.564ZM22 12C22 13.4166 21.9992 14.4189 21.9352 15.2025C21.8721 15.9745 21.7527 16.4456 21.564 16.8159L23.346 17.7239C23.7023 17.0247 23.8554 16.261 23.9286 15.3654C24.0008 14.4815 24 13.3836 24 12H22ZM15 21C16.3836 21 17.4815 21.0008 18.3654 20.9285C19.261 20.8554 20.0247 20.7023 20.7239 20.346L19.816 18.564C19.4457 18.7527 18.9745 18.8721 18.2026 18.9352C17.419 18.9992 16.4166 19 15 19V21ZM21.564 16.8159C21.1805 17.5686 20.5686 18.1805 19.816 18.564L20.7239 20.346C21.8529 19.7708 22.7708 18.8529 23.346 17.7239L21.564 16.8159ZM15 5C16.4166 5 17.4189 5.00078 18.2025 5.0648C18.9744 5.12787 19.4456 5.24729 19.8159 5.43597L20.7239 3.65396C20.0247 3.29768 19.261 3.14462 18.3654 3.07144C17.4814 2.99922 16.3836 3 15 3V5ZM24 12C24 10.6163 24.0008 9.51848 23.9285 8.63455C23.8553 7.73895 23.7023 6.97529 23.346 6.27606L21.564 7.18404C21.7527 7.55436 21.8721 8.02554 21.9352 8.79745C21.9992 9.58103 22 10.5834 22 12H24ZM19.8159 5.43597C20.5686 5.81947 21.1805 6.43139 21.564 7.18404L23.346 6.27606C22.7708 5.14708 21.8529 4.2292 20.7239 3.65396L19.8159 5.43597ZM8.99995 3C7.61632 3 6.51846 2.99922 5.63453 3.07144C4.73893 3.14462 3.97526 3.29768 3.27601 3.65396L4.18399 5.43597C4.5543 5.24729 5.02548 5.12787 5.7974 5.0648C6.58099 5.00078 7.58332 5 8.99995 5V3ZM2 12C2 10.5836 2.00078 9.58123 2.0648 8.79756C2.12786 8.02553 2.24729 7.55427 2.43593 7.18404L0.653915 6.27606C0.297636 6.97529 0.144598 7.73911 0.0714353 8.63472C-0.000777364 9.51871 0 10.6166 0 12H2ZM3.27601 3.65396C2.14704 4.2292 1.22916 5.14708 0.653915 6.27606L2.43593 7.18404C2.81942 6.43139 3.43134 5.81947 4.18399 5.43597L3.27601 3.65396ZM4.99995 12H7.99995V10L4.99995 10L4.99995 12ZM16 16H19V14H16V16ZM12 12H19V10L12 10V12ZM4.99995 16L12 16V14L4.99995 14L4.99995 16Z" fill="#FFF9F9"/>
</svg>
