<svg width="18" height="14" viewBox="0 0 18 14" fill="none" xmlns="http://www.w3.org/2000/svg">
<path d="M14.0001 5.1366C14.5115 5.59437 14.8334 6.25961 14.8334 7.00002C14.8334 7.74044 14.5115 8.40568 14.0001 8.86344M15.6667 3.27299C16.6897 4.18853 17.3334 5.519 17.3334 6.99984C17.3334 8.48067 16.6897 9.81115 15.6667 10.7267M2.33341 10.3333H3.16675C3.62699 10.3333 4.00008 9.96024 4.00008 9.5V4.5C4.00008 4.03977 3.62699 3.66667 3.16675 3.66667H2.33341C1.41294 3.66667 0.666748 4.41286 0.666748 5.33334V8.66667C0.666748 9.58715 1.41294 10.3333 2.33341 10.3333ZM4.46074 3.43634L9.46074 0.936343C10.0148 0.6593 10.6667 1.06221 10.6667 1.6817V12.3183C10.6667 12.9378 10.0148 13.3407 9.46074 13.0637L4.46074 10.5637C4.17842 10.4225 4.00008 10.134 4.00008 9.81831V4.1817C4.00008 3.86606 4.17842 3.5775 4.46074 3.43634Z" stroke="#FFF9F9" stroke-linecap="round"/>
</svg>
